<?xml version="1.0" encoding="UTF-8" standalone="no"?>
<!DOCTYPE svg PUBLIC "-//W3C//DTD SVG 1.1//EN"
 "http://www.w3.org/Graphics/SVG/1.1/DTD/svg11.dtd">
<!-- Generated by graphviz version 2.38.0 (20140413.2041)
 -->
<!-- Title: dependencies Pages: 1 -->
<svg width="5049pt" height="352pt"
 viewBox="0.00 0.00 5049.00 352.00" xmlns="http://www.w3.org/2000/svg" xmlns:xlink="http://www.w3.org/1999/xlink">
<g id="graph0" class="graph" transform="scale(1 1) rotate(0) translate(4 348)">
<title>dependencies</title>
<polygon fill="white" stroke="none" points="-4,4 -4,-348 5045,-348 5045,4 -4,4"/>
<text text-anchor="start" x="2499.51" y="-42.4" font-family="sans-serif" font-weight="bold" font-size="14.00">Legend</text>
<polygon fill="#ffffb3" stroke="none" points="2286.5,-10 2286.5,-30 2306.5,-30 2306.5,-10 2286.5,-10"/>
<text text-anchor="start" x="2310.13" y="-15.4" font-family="sans-serif" font-size="14.00"> &#160;Declarations</text>
<polygon fill="#8dd3c7" stroke="none" points="2399.5,-10 2399.5,-30 2419.5,-30 2419.5,-10 2399.5,-10"/>
<text text-anchor="start" x="2423.23" y="-15.4" font-family="sans-serif" font-size="14.00"> &#160;Module</text>
<polygon fill="#80b1d3" stroke="none" points="2485.5,-10 2485.5,-30 2505.5,-30 2505.5,-10 2485.5,-10"/>
<text text-anchor="start" x="2509.28" y="-15.4" font-family="sans-serif" font-size="14.00"> &#160;Bootstrap</text>
<polygon fill="#fdb462" stroke="none" points="2582.5,-10 2582.5,-30 2602.5,-30 2602.5,-10 2582.5,-10"/>
<text text-anchor="start" x="2606.17" y="-15.4" font-family="sans-serif" font-size="14.00"> &#160;Providers</text>
<polygon fill="#fb8072" stroke="none" points="2678.5,-10 2678.5,-30 2698.5,-30 2698.5,-10 2678.5,-10"/>
<text text-anchor="start" x="2702.23" y="-15.4" font-family="sans-serif" font-size="14.00"> &#160;Exports</text>
<g id="clust1" class="cluster"><title>cluster_AnswersModule</title>
<polygon fill="none" stroke="black" stroke-dasharray="1,5" points="8,-70 8,-198 478,-198 478,-70 8,-70"/>
</g>
<g id="clust2" class="cluster"><title>cluster_AnswersModule_declarations</title>
<polygon fill="none" stroke="black" points="152,-78 152,-130 470,-130 470,-78 152,-78"/>
</g>
<g id="clust5" class="cluster"><title>cluster_AnswersModule_imports</title>
<polygon fill="none" stroke="black" points="16,-78 16,-130 144,-130 144,-78 16,-78"/>
</g>
<g id="clust9" class="cluster"><title>cluster_AppModule</title>
<polygon fill="none" stroke="black" stroke-dasharray="1,5" points="486,-138 486,-336 5033,-336 5033,-138 486,-138"/>
</g>
<g id="clust10" class="cluster"><title>cluster_AppModule_declarations</title>
<polygon fill="none" stroke="black" points="2191,-146 2191,-198 5025,-198 5025,-146 2191,-146"/>
</g>
<g id="clust29" class="cluster"><title>cluster_AppModule_imports</title>
<polygon fill="none" stroke="black" points="946,-146 946,-198 2183,-198 2183,-146 946,-146"/>
</g>
<g id="clust31" class="cluster"><title>cluster_AppModule_bootstrap</title>
<polygon fill="none" stroke="black" points="2524,-276 2524,-328 2648,-328 2648,-276 2524,-276"/>
</g>
<g id="clust32" class="cluster"><title>cluster_AppModule_providers</title>
<polygon fill="none" stroke="black" points="494,-146 494,-198 938,-198 938,-146 494,-146"/>
</g>
<!-- AnswersComponent -->
<g id="node1" class="node"><title>AnswersComponent</title>
<polygon fill="#ffffb3" stroke="black" points="462.31,-122 331.69,-122 331.69,-86 462.31,-86 462.31,-122"/>
<text text-anchor="middle" x="397" y="-99.8" font-family="Times,serif" font-size="14.00">AnswersComponent</text>
</g>
<!-- AnswersModule -->
<g id="node3" class="node"><title>AnswersModule</title>
<polygon fill="#8dd3c7" stroke="black" points="349.028,-190 346.028,-194 325.028,-194 322.028,-190 240.972,-190 240.972,-154 349.028,-154 349.028,-190"/>
<text text-anchor="middle" x="295" y="-167.8" font-family="Times,serif" font-size="14.00">AnswersModule</text>
</g>
<!-- AnswersComponent&#45;&gt;AnswersModule -->
<g id="edge1" class="edge"><title>AnswersComponent&#45;&gt;AnswersModule</title>
<path fill="none" stroke="black" d="M340.554,-122.223C340.554,-122.223 340.554,-143.727 340.554,-143.727"/>
<polygon fill="black" stroke="black" points="337.054,-143.727 340.554,-153.727 344.054,-143.727 337.054,-143.727"/>
</g>
<!-- AppModule -->
<g id="node22" class="node"><title>AppModule</title>
<polygon fill="#8dd3c7" stroke="black" points="2627.66,-255 2624.66,-259 2603.66,-259 2600.66,-255 2544.34,-255 2544.34,-219 2627.66,-219 2627.66,-255"/>
<text text-anchor="middle" x="2586" y="-232.8" font-family="Times,serif" font-size="14.00">AppModule</text>
</g>
<!-- AnswersComponent&#45;&gt;AppModule -->
<g id="edge20" class="edge"><title>AnswersComponent&#45;&gt;AppModule</title>
<path fill="none" stroke="black" d="M405.709,-122.025C405.709,-161.278 405.709,-251 405.709,-251 405.709,-251 2533.91,-251 2533.91,-251"/>
<polygon fill="black" stroke="black" points="2533.91,-254.5 2543.91,-251 2533.91,-247.5 2533.91,-254.5"/>
</g>
<!-- EditAnswersComponent -->
<g id="node2" class="node"><title>EditAnswersComponent</title>
<polygon fill="#ffffb3" stroke="black" points="313.644,-122 160.356,-122 160.356,-86 313.644,-86 313.644,-122"/>
<text text-anchor="middle" x="237" y="-99.8" font-family="Times,serif" font-size="14.00">EditAnswersComponent</text>
</g>
<!-- EditAnswersComponent&#45;&gt;AnswersModule -->
<g id="edge2" class="edge"><title>EditAnswersComponent&#45;&gt;AnswersModule</title>
<path fill="none" stroke="black" d="M277.279,-122.223C277.279,-122.223 277.279,-143.727 277.279,-143.727"/>
<polygon fill="black" stroke="black" points="273.779,-143.727 277.279,-153.727 280.779,-143.727 273.779,-143.727"/>
</g>
<!-- AnswersModule&#45;&gt;AppModule -->
<g id="edge30" class="edge"><title>AnswersModule&#45;&gt;AppModule</title>
<path fill="none" stroke="black" d="M295,-190.38C295,-214.279 295,-253 295,-253 295,-253 2534.28,-253 2534.28,-253"/>
<polygon fill="black" stroke="black" points="2534.28,-256.5 2544.28,-253 2534.28,-249.5 2534.28,-256.5"/>
</g>
<!-- CommonModule -->
<g id="node4" class="node"><title>CommonModule</title>
<polygon fill="#8dd3c7" stroke="black" points="135.668,-122 132.668,-126 111.668,-126 108.668,-122 24.3319,-122 24.3319,-86 135.668,-86 135.668,-122"/>
<text text-anchor="middle" x="80" y="-99.8" font-family="Times,serif" font-size="14.00">CommonModule</text>
</g>
<!-- CommonModule&#45;&gt;AnswersModule -->
<g id="edge3" class="edge"><title>CommonModule&#45;&gt;AnswersModule</title>
<path fill="none" stroke="black" d="M80,-122.223C80,-142.365 80,-172 80,-172 80,-172 230.746,-172 230.746,-172"/>
<polygon fill="black" stroke="black" points="230.746,-175.5 240.746,-172 230.746,-168.5 230.746,-175.5"/>
</g>
<!-- AppComponent -->
<g id="node5" class="node"><title>AppComponent</title>
<polygon fill="#ffffb3" stroke="black" points="5016.94,-190 4911.06,-190 4911.06,-154 5016.94,-154 5016.94,-190"/>
<text text-anchor="middle" x="4964" y="-167.8" font-family="Times,serif" font-size="14.00">AppComponent</text>
</g>
<!-- AppComponent&#45;&gt;AppModule -->
<g id="edge4" class="edge"><title>AppComponent&#45;&gt;AppModule</title>
<path fill="none" stroke="black" d="M4964,-190.38C4964,-214.279 4964,-253 4964,-253 4964,-253 2637.78,-253 2637.78,-253"/>
<polygon fill="black" stroke="black" points="2637.78,-249.5 2627.78,-253 2637.78,-256.5 2637.78,-249.5"/>
</g>
<!-- LoginComponent -->
<g id="node6" class="node"><title>LoginComponent</title>
<polygon fill="#ffffb3" stroke="black" points="4893.28,-190 4778.72,-190 4778.72,-154 4893.28,-154 4893.28,-190"/>
<text text-anchor="middle" x="4836" y="-167.8" font-family="Times,serif" font-size="14.00">LoginComponent</text>
</g>
<!-- LoginComponent&#45;&gt;AppModule -->
<g id="edge5" class="edge"><title>LoginComponent&#45;&gt;AppModule</title>
<path fill="none" stroke="black" d="M4836,-190.323C4836,-213.66 4836,-251 4836,-251 4836,-251 2637.95,-251 2637.95,-251"/>
<polygon fill="black" stroke="black" points="2637.95,-247.5 2627.95,-251 2637.95,-254.5 2637.95,-247.5"/>
</g>
<!-- QuestionnaireListComponent -->
<g id="node7" class="node"><title>QuestionnaireListComponent</title>
<polygon fill="#ffffb3" stroke="black" points="4760.64,-190 4579.36,-190 4579.36,-154 4760.64,-154 4760.64,-190"/>
<text text-anchor="middle" x="4670" y="-167.8" font-family="Times,serif" font-size="14.00">QuestionnaireListComponent</text>
</g>
<!-- QuestionnaireListComponent&#45;&gt;AppModule -->
<g id="edge6" class="edge"><title>QuestionnaireListComponent&#45;&gt;AppModule</title>
<path fill="none" stroke="black" d="M4670,-190.011C4670,-212.485 4670,-248 4670,-248 4670,-248 2638.1,-248 2638.1,-248"/>
<polygon fill="black" stroke="black" points="2638.1,-244.5 2628.1,-248 2638.1,-251.5 2638.1,-244.5"/>
</g>
<!-- HeaderComponent -->
<g id="node8" class="node"><title>HeaderComponent</title>
<polygon fill="#ffffb3" stroke="black" points="4560.74,-190 4439.26,-190 4439.26,-154 4560.74,-154 4560.74,-190"/>
<text text-anchor="middle" x="4500" y="-167.8" font-family="Times,serif" font-size="14.00">HeaderComponent</text>
</g>
<!-- HeaderComponent&#45;&gt;AppModule -->
<g id="edge7" class="edge"><title>HeaderComponent&#45;&gt;AppModule</title>
<path fill="none" stroke="black" d="M4500,-190.292C4500,-212.206 4500,-246 4500,-246 4500,-246 2637.76,-246 2637.76,-246"/>
<polygon fill="black" stroke="black" points="2637.76,-242.5 2627.76,-246 2637.76,-249.5 2637.76,-242.5"/>
</g>
<!-- QuestionComponent -->
<g id="node9" class="node"><title>QuestionComponent</title>
<polygon fill="#ffffb3" stroke="black" points="4420.88,-190 4289.12,-190 4289.12,-154 4420.88,-154 4420.88,-190"/>
<text text-anchor="middle" x="4355" y="-167.8" font-family="Times,serif" font-size="14.00">QuestionComponent</text>
</g>
<!-- QuestionComponent&#45;&gt;AppModule -->
<g id="edge8" class="edge"><title>QuestionComponent&#45;&gt;AppModule</title>
<path fill="none" stroke="black" d="M4355,-190.284C4355,-211.321 4355,-243 4355,-243 4355,-243 2637.98,-243 2637.98,-243"/>
<polygon fill="black" stroke="black" points="2637.98,-239.5 2627.98,-243 2637.98,-246.5 2637.98,-239.5"/>
</g>
<!-- QuestionnaireComponent -->
<g id="node10" class="node"><title>QuestionnaireComponent</title>
<polygon fill="#ffffb3" stroke="black" points="4270.86,-190 4111.14,-190 4111.14,-154 4270.86,-154 4270.86,-190"/>
<text text-anchor="middle" x="4191" y="-167.8" font-family="Times,serif" font-size="14.00">QuestionnaireComponent</text>
</g>
<!-- QuestionnaireComponent&#45;&gt;AppModule -->
<g id="edge9" class="edge"><title>QuestionnaireComponent&#45;&gt;AppModule</title>
<path fill="none" stroke="black" d="M4191,-190.129C4191,-210.572 4191,-241 4191,-241 4191,-241 2637.7,-241 2637.7,-241"/>
<polygon fill="black" stroke="black" points="2637.7,-237.5 2627.7,-241 2637.7,-244.5 2637.7,-237.5"/>
</g>
<!-- QuestionnaireDetailListComponent -->
<g id="node11" class="node"><title>QuestionnaireDetailListComponent</title>
<polygon fill="#ffffb3" stroke="black" points="4092.85,-190 3877.15,-190 3877.15,-154 4092.85,-154 4092.85,-190"/>
<text text-anchor="middle" x="3985" y="-167.8" font-family="Times,serif" font-size="14.00">QuestionnaireDetailListComponent</text>
</g>
<!-- QuestionnaireDetailListComponent&#45;&gt;AppModule -->
<g id="edge10" class="edge"><title>QuestionnaireDetailListComponent&#45;&gt;AppModule</title>
<path fill="none" stroke="black" d="M3985,-190.308C3985,-210.146 3985,-239 3985,-239 3985,-239 2637.87,-239 2637.87,-239"/>
<polygon fill="black" stroke="black" points="2637.87,-235.5 2627.87,-239 2637.87,-242.5 2637.87,-235.5"/>
</g>
<!-- GlobalComponent -->
<g id="node12" class="node"><title>GlobalComponent</title>
<polygon fill="#ffffb3" stroke="black" points="3858.94,-190 3739.06,-190 3739.06,-154 3858.94,-154 3858.94,-190"/>
<text text-anchor="middle" x="3799" y="-167.8" font-family="Times,serif" font-size="14.00">GlobalComponent</text>
</g>
<!-- GlobalComponent&#45;&gt;AppModule -->
<g id="edge11" class="edge"><title>GlobalComponent&#45;&gt;AppModule</title>
<path fill="none" stroke="black" d="M3799,-190.169C3799,-209.09 3799,-236 3799,-236 3799,-236 2637.75,-236 2637.75,-236"/>
<polygon fill="black" stroke="black" points="2637.75,-232.5 2627.75,-236 2637.75,-239.5 2637.75,-232.5"/>
</g>
<!-- CategoryComponent -->
<g id="node13" class="node"><title>CategoryComponent</title>
<polygon fill="#ffffb3" stroke="black" points="3721.15,-190 3588.85,-190 3588.85,-154 3721.15,-154 3721.15,-190"/>
<text text-anchor="middle" x="3655" y="-167.8" font-family="Times,serif" font-size="14.00">CategoryComponent</text>
</g>
<!-- CategoryComponent&#45;&gt;AppModule -->
<g id="edge12" class="edge"><title>CategoryComponent&#45;&gt;AppModule</title>
<path fill="none" stroke="black" d="M3655,-190.267C3655,-208.555 3655,-234 3655,-234 3655,-234 2637.91,-234 2637.91,-234"/>
<polygon fill="black" stroke="black" points="2637.91,-230.5 2627.91,-234 2637.91,-237.5 2637.91,-230.5"/>
</g>
<!-- ImageUploadComponent -->
<g id="node14" class="node"><title>ImageUploadComponent</title>
<polygon fill="#ffffb3" stroke="black" points="3570.53,-190 3413.47,-190 3413.47,-154 3570.53,-154 3570.53,-190"/>
<text text-anchor="middle" x="3492" y="-167.8" font-family="Times,serif" font-size="14.00">ImageUploadComponent</text>
</g>
<!-- ImageUploadComponent&#45;&gt;AppModule -->
<g id="edge13" class="edge"><title>ImageUploadComponent&#45;&gt;AppModule</title>
<path fill="none" stroke="black" d="M3492,-190.023C3492,-207.373 3492,-231 3492,-231 3492,-231 2637.88,-231 2637.88,-231"/>
<polygon fill="black" stroke="black" points="2637.88,-227.5 2627.88,-231 2637.88,-234.5 2637.88,-227.5"/>
</g>
<!-- AudioUploadComponent -->
<g id="node15" class="node"><title>AudioUploadComponent</title>
<polygon fill="#ffffb3" stroke="black" points="3394.54,-190 3237.46,-190 3237.46,-154 3394.54,-154 3394.54,-190"/>
<text text-anchor="middle" x="3316" y="-167.8" font-family="Times,serif" font-size="14.00">AudioUploadComponent</text>
</g>
<!-- AudioUploadComponent&#45;&gt;AppModule -->
<g id="edge14" class="edge"><title>AudioUploadComponent&#45;&gt;AppModule</title>
<path fill="none" stroke="black" d="M3316,-190.035C3316,-206.734 3316,-229 3316,-229 3316,-229 2637.87,-229 2637.87,-229"/>
<polygon fill="black" stroke="black" points="2637.87,-225.5 2627.87,-229 2637.87,-232.5 2637.87,-225.5"/>
</g>
<!-- CategoryPreviewComponent -->
<g id="node16" class="node"><title>CategoryPreviewComponent</title>
<polygon fill="#ffffb3" stroke="black" points="3219.02,-190 3040.98,-190 3040.98,-154 3219.02,-154 3219.02,-190"/>
<text text-anchor="middle" x="3130" y="-167.8" font-family="Times,serif" font-size="14.00">CategoryPreviewComponent</text>
</g>
<!-- CategoryPreviewComponent&#45;&gt;AppModule -->
<g id="edge15" class="edge"><title>CategoryPreviewComponent&#45;&gt;AppModule</title>
<path fill="none" stroke="black" d="M3130,-190.009C3130,-206.049 3130,-227 3130,-227 3130,-227 2637.78,-227 2637.78,-227"/>
<polygon fill="black" stroke="black" points="2637.78,-223.5 2627.78,-227 2637.78,-230.5 2637.78,-223.5"/>
</g>
<!-- QuestionPreviewComponent -->
<g id="node17" class="node"><title>QuestionPreviewComponent</title>
<polygon fill="#ffffb3" stroke="black" points="3022.75,-190 2845.25,-190 2845.25,-154 3022.75,-154 3022.75,-190"/>
<text text-anchor="middle" x="2934" y="-167.8" font-family="Times,serif" font-size="14.00">QuestionPreviewComponent</text>
</g>
<!-- QuestionPreviewComponent&#45;&gt;AppModule -->
<g id="edge16" class="edge"><title>QuestionPreviewComponent&#45;&gt;AppModule</title>
<path fill="none" stroke="black" d="M2934,-190.187C2934,-205.182 2934,-224 2934,-224 2934,-224 2637.98,-224 2637.98,-224"/>
<polygon fill="black" stroke="black" points="2637.98,-220.5 2627.98,-224 2637.98,-227.5 2637.98,-220.5"/>
</g>
<!-- QuestionDetailComponent -->
<g id="node18" class="node"><title>QuestionDetailComponent</title>
<polygon fill="#ffffb3" stroke="black" points="2827.09,-190 2660.91,-190 2660.91,-154 2827.09,-154 2827.09,-190"/>
<text text-anchor="middle" x="2744" y="-167.8" font-family="Times,serif" font-size="14.00">QuestionDetailComponent</text>
</g>
<!-- QuestionDetailComponent&#45;&gt;AppModule -->
<g id="edge17" class="edge"><title>QuestionDetailComponent&#45;&gt;AppModule</title>
<path fill="none" stroke="black" d="M2744,-190.051C2744,-204.373 2744,-222 2744,-222 2744,-222 2637.93,-222 2637.93,-222"/>
<polygon fill="black" stroke="black" points="2637.93,-218.5 2627.93,-222 2637.93,-225.5 2637.93,-218.5"/>
</g>
<!-- ShareComponent -->
<g id="node19" class="node"><title>ShareComponent</title>
<polygon fill="#ffffb3" stroke="black" points="2642.7,-190 2529.3,-190 2529.3,-154 2642.7,-154 2642.7,-190"/>
<text text-anchor="middle" x="2586" y="-167.8" font-family="Times,serif" font-size="14.00">ShareComponent</text>
</g>
<!-- ShareComponent&#45;&gt;AppModule -->
<g id="edge18" class="edge"><title>ShareComponent&#45;&gt;AppModule</title>
<path fill="none" stroke="black" d="M2586,-190.106C2586,-190.106 2586,-208.991 2586,-208.991"/>
<polygon fill="black" stroke="black" points="2582.5,-208.991 2586,-218.991 2589.5,-208.991 2582.5,-208.991"/>
</g>
<!-- SubscalesComponent -->
<g id="node20" class="node"><title>SubscalesComponent</title>
<polygon fill="#ffffb3" stroke="black" points="2511.04,-190 2374.96,-190 2374.96,-154 2511.04,-154 2511.04,-190"/>
<text text-anchor="middle" x="2443" y="-167.8" font-family="Times,serif" font-size="14.00">SubscalesComponent</text>
</g>
<!-- SubscalesComponent&#45;&gt;AppModule -->
<g id="edge19" class="edge"><title>SubscalesComponent&#45;&gt;AppModule</title>
<path fill="none" stroke="black" d="M2443,-190.051C2443,-204.373 2443,-222 2443,-222 2443,-222 2534.25,-222 2534.25,-222"/>
<polygon fill="black" stroke="black" points="2534.25,-225.5 2544.25,-222 2534.25,-218.5 2534.25,-225.5"/>
</g>
<!-- SubscalesListComponent -->
<g id="node21" class="node"><title>SubscalesListComponent</title>
<polygon fill="#ffffb3" stroke="black" points="2357.32,-190 2198.68,-190 2198.68,-154 2357.32,-154 2357.32,-190"/>
<text text-anchor="middle" x="2278" y="-167.8" font-family="Times,serif" font-size="14.00">SubscalesListComponent</text>
</g>
<!-- SubscalesListComponent&#45;&gt;AppModule -->
<g id="edge21" class="edge"><title>SubscalesListComponent&#45;&gt;AppModule</title>
<path fill="none" stroke="black" d="M2278,-190.187C2278,-205.182 2278,-224 2278,-224 2278,-224 2534.14,-224 2534.14,-224"/>
<polygon fill="black" stroke="black" points="2534.14,-227.5 2544.14,-224 2534.14,-220.5 2534.14,-227.5"/>
</g>
<!-- AppComponent  -->
<g id="node31" class="node"><title>AppComponent </title>
<polygon fill="#80b1d3" stroke="black" points="2640.44,-320 2531.56,-320 2531.56,-284 2640.44,-284 2640.44,-320"/>
<text text-anchor="middle" x="2586" y="-297.8" font-family="Times,serif" font-size="14.00">AppComponent </text>
</g>
<!-- AppModule&#45;&gt;AppComponent  -->
<g id="edge31" class="edge"><title>AppModule&#45;&gt;AppComponent </title>
<path fill="none" stroke="black" stroke-dasharray="1,5" d="M2586,-255.106C2586,-255.106 2586,-273.991 2586,-273.991"/>
<polygon fill="black" stroke="black" points="2582.5,-273.991 2586,-283.991 2589.5,-273.991 2582.5,-273.991"/>
</g>
<!-- BrowserModule -->
<g id="node23" class="node"><title>BrowserModule</title>
<polygon fill="#8dd3c7" stroke="black" points="2175.47,-190 2172.47,-194 2151.47,-194 2148.47,-190 2068.53,-190 2068.53,-154 2175.47,-154 2175.47,-190"/>
<text text-anchor="middle" x="2122" y="-167.8" font-family="Times,serif" font-size="14.00">BrowserModule</text>
</g>
<!-- BrowserModule&#45;&gt;AppModule -->
<g id="edge22" class="edge"><title>BrowserModule&#45;&gt;AppModule</title>
<path fill="none" stroke="black" d="M2122,-190.009C2122,-206.049 2122,-227 2122,-227 2122,-227 2534,-227 2534,-227"/>
<polygon fill="black" stroke="black" points="2534,-230.5 2544,-227 2534,-223.5 2534,-230.5"/>
</g>
<!-- FormsModule -->
<g id="node24" class="node"><title>FormsModule</title>
<polygon fill="#8dd3c7" stroke="black" points="2050.83,-190 2047.83,-194 2026.83,-194 2023.83,-190 1955.17,-190 1955.17,-154 2050.83,-154 2050.83,-190"/>
<text text-anchor="middle" x="2003" y="-167.8" font-family="Times,serif" font-size="14.00">FormsModule</text>
</g>
<!-- FormsModule&#45;&gt;AppModule -->
<g id="edge23" class="edge"><title>FormsModule&#45;&gt;AppModule</title>
<path fill="none" stroke="black" d="M2003,-190.035C2003,-206.734 2003,-229 2003,-229 2003,-229 2534.07,-229 2534.07,-229"/>
<polygon fill="black" stroke="black" points="2534.07,-232.5 2544.07,-229 2534.07,-225.5 2534.07,-232.5"/>
</g>
<!-- HttpModule -->
<g id="node25" class="node"><title>HttpModule</title>
<polygon fill="#8dd3c7" stroke="black" points="1937.44,-190 1934.44,-194 1913.44,-194 1910.44,-190 1852.56,-190 1852.56,-154 1937.44,-154 1937.44,-190"/>
<text text-anchor="middle" x="1895" y="-167.8" font-family="Times,serif" font-size="14.00">HttpModule</text>
</g>
<!-- HttpModule&#45;&gt;AppModule -->
<g id="edge24" class="edge"><title>HttpModule&#45;&gt;AppModule</title>
<path fill="none" stroke="black" d="M1895,-190.023C1895,-207.373 1895,-231 1895,-231 1895,-231 2534.33,-231 2534.33,-231"/>
<polygon fill="black" stroke="black" points="2534.33,-234.5 2544.33,-231 2534.33,-227.5 2534.33,-234.5"/>
</g>
<!-- RouterModule.forRoot(args) -->
<g id="node26" class="node"><title>RouterModule.forRoot(args)</title>
<polygon fill="#8dd3c7" stroke="black" points="1834.84,-190 1831.84,-194 1810.84,-194 1807.84,-190 1657.16,-190 1657.16,-154 1834.84,-154 1834.84,-190"/>
<text text-anchor="middle" x="1746" y="-167.8" font-family="Times,serif" font-size="14.00">RouterModule.forRoot(args)</text>
</g>
<!-- RouterModule.forRoot(args)&#45;&gt;AppModule -->
<g id="edge25" class="edge"><title>RouterModule.forRoot(args)&#45;&gt;AppModule</title>
<path fill="none" stroke="black" d="M1746,-190.267C1746,-208.555 1746,-234 1746,-234 1746,-234 2534.06,-234 2534.06,-234"/>
<polygon fill="black" stroke="black" points="2534.06,-237.5 2544.06,-234 2534.06,-230.5 2534.06,-237.5"/>
</g>
<!-- Ng2UploaderModule -->
<g id="node27" class="node"><title>Ng2UploaderModule</title>
<polygon fill="#8dd3c7" stroke="black" points="1638.74,-190 1635.74,-194 1614.74,-194 1611.74,-190 1503.26,-190 1503.26,-154 1638.74,-154 1638.74,-190"/>
<text text-anchor="middle" x="1571" y="-167.8" font-family="Times,serif" font-size="14.00">Ng2UploaderModule</text>
</g>
<!-- Ng2UploaderModule&#45;&gt;AppModule -->
<g id="edge26" class="edge"><title>Ng2UploaderModule&#45;&gt;AppModule</title>
<path fill="none" stroke="black" d="M1571,-190.169C1571,-209.09 1571,-236 1571,-236 1571,-236 2534.32,-236 2534.32,-236"/>
<polygon fill="black" stroke="black" points="2534.32,-239.5 2544.32,-236 2534.32,-232.5 2534.32,-239.5"/>
</g>
<!-- NG2Bootstrap.AlertModule -->
<g id="node28" class="node"><title>NG2Bootstrap.AlertModule</title>
<polygon fill="#8dd3c7" stroke="black" points="1484.96,-190 1481.96,-194 1460.96,-194 1457.96,-190 1311.04,-190 1311.04,-154 1484.96,-154 1484.96,-190"/>
<text text-anchor="middle" x="1398" y="-167.8" font-family="Times,serif" font-size="14.00">NG2Bootstrap.AlertModule</text>
</g>
<!-- NG2Bootstrap.AlertModule&#45;&gt;AppModule -->
<g id="edge27" class="edge"><title>NG2Bootstrap.AlertModule&#45;&gt;AppModule</title>
<path fill="none" stroke="black" d="M1398,-190.308C1398,-210.146 1398,-239 1398,-239 1398,-239 2534.07,-239 2534.07,-239"/>
<polygon fill="black" stroke="black" points="2534.07,-242.5 2544.07,-239 2534.07,-235.5 2534.07,-242.5"/>
</g>
<!-- NG2Bootstrap.ModalModule -->
<g id="node29" class="node"><title>NG2Bootstrap.ModalModule</title>
<polygon fill="#8dd3c7" stroke="black" points="1293.75,-190 1290.75,-194 1269.75,-194 1266.75,-190 1112.25,-190 1112.25,-154 1293.75,-154 1293.75,-190"/>
<text text-anchor="middle" x="1203" y="-167.8" font-family="Times,serif" font-size="14.00">NG2Bootstrap.ModalModule</text>
</g>
<!-- NG2Bootstrap.ModalModule&#45;&gt;AppModule -->
<g id="edge28" class="edge"><title>NG2Bootstrap.ModalModule&#45;&gt;AppModule</title>
<path fill="none" stroke="black" d="M1203,-190.129C1203,-210.572 1203,-241 1203,-241 1203,-241 2534.23,-241 2534.23,-241"/>
<polygon fill="black" stroke="black" points="2534.23,-244.5 2544.23,-241 2534.23,-237.5 2534.23,-244.5"/>
</g>
<!-- DndModule.forRoot() -->
<g id="node30" class="node"><title>DndModule.forRoot()</title>
<polygon fill="#8dd3c7" stroke="black" points="1094.03,-190 1091.03,-194 1070.03,-194 1067.03,-190 953.974,-190 953.974,-154 1094.03,-154 1094.03,-190"/>
<text text-anchor="middle" x="1024" y="-167.8" font-family="Times,serif" font-size="14.00">DndModule.forRoot()</text>
</g>
<!-- DndModule.forRoot()&#45;&gt;AppModule -->
<g id="edge29" class="edge"><title>DndModule.forRoot()&#45;&gt;AppModule</title>
<path fill="none" stroke="black" d="M1024,-190.284C1024,-211.321 1024,-243 1024,-243 1024,-243 2534.22,-243 2534.22,-243"/>
<polygon fill="black" stroke="black" points="2534.22,-246.5 2544.22,-243 2534.22,-239.5 2534.22,-246.5"/>
</g>
<!-- HttpQuestionnaireService -->
<g id="node32" class="node"><title>HttpQuestionnaireService</title>
<ellipse fill="#fdb462" stroke="black" cx="819" cy="-172" rx="111.152" ry="18"/>
<text text-anchor="middle" x="819" y="-167.8" font-family="Times,serif" font-size="14.00">HttpQuestionnaireService</text>
</g>
<!-- HttpQuestionnaireService&#45;&gt;AppModule -->
<g id="edge32" class="edge"><title>HttpQuestionnaireService&#45;&gt;AppModule</title>
<path fill="none" stroke="black" d="M819,-190.292C819,-212.206 819,-246 819,-246 819,-246 2534.06,-246 2534.06,-246"/>
<polygon fill="black" stroke="black" points="2534.06,-249.5 2544.06,-246 2534.06,-242.5 2534.06,-249.5"/>
</g>
<!-- QuestionnaireService -->
<g id="node33" class="node"><title>QuestionnaireService</title>
<ellipse fill="#fdb462" stroke="black" cx="596" cy="-172" rx="94.3176" ry="18"/>
<text text-anchor="middle" x="596" y="-167.8" font-family="Times,serif" font-size="14.00">QuestionnaireService</text>
</g>
<!-- QuestionnaireService&#45;&gt;AppModule -->
<g id="edge33" class="edge"><title>QuestionnaireService&#45;&gt;AppModule</title>
<path fill="none" stroke="black" d="M596,-190.011C596,-212.485 596,-248 596,-248 596,-248 2533.98,-248 2533.98,-248"/>
<polygon fill="black" stroke="black" points="2533.98,-251.5 2543.98,-248 2533.98,-244.5 2533.98,-251.5"/>
</g>
</g>
</svg>
